<?xml version="1.0" standalone="no"?><!DOCTYPE svg PUBLIC "-//W3C//DTD SVG 1.1//EN" "http://www.w3.org/Graphics/SVG/1.1/DTD/svg11.dtd"><svg class="icon" width="200px" height="190.51px" viewBox="0 0 1075 1024" version="1.1" xmlns="http://www.w3.org/2000/svg"><path fill="#707070" d="M20.070881 16.485076C30.852362 6.473702 45.508437 0.806204 60.224677 0.962632h956.627779c13.176028-0.048132 26.303925 4.500306 36.616122 12.718778 12.730811 9.891046 20.552197 25.208931 22.272903 41.140494v643.724183c-1.648508 23.452127-18.338143 45.06322-40.923902 51.885875-10.829612 3.706134-22.393231 2.69537-33.631962 2.827732-87.611563 0.012033-175.235159-0.012033-262.846722 0.012033-0.024066 50.177203-0.036099 100.366439 0.012033 150.543643 48.263972 0.036099 96.527944 0 144.791916 0.012033 6.016451 0.036099 12.081034-0.276757 18.037321 0.770106 12.357791 1.937297 23.993608 8.013913 32.801692 16.882162 11.058237 11.082303 17.471774 26.676945 17.279248 42.343784 0.012033 16.737767-7.520564 33.258942-20.094948 44.281081-11.058237 9.903079-25.906839 15.281786-40.731374 15.005029-240.248931 0.012033-480.497861 0.012033-720.746792 0-15.08926 0.264724-30.190552-5.378707-41.284889-15.63074-12.514219-11.286863-19.794125-28.096827-19.409071-44.954924 0.132362-17.748531 8.83215-35.136075 22.862514-45.97772 10.023408-7.905617 22.645922-12.490153 35.424865-12.682679 59.225946-0.180494 118.451892 0.192526 177.677838-0.192527-0.08423-50.129072-0.036099-100.24611-0.024066-150.375182-91.70275-0.08423-183.393467-0.012033-275.096216-0.036099-6.413537-0.048132-12.863173 0.252691-19.228578-0.758072-13.537015-2.129824-26.231727-9.20517-35.184207-19.5655-9.20517-10.600987-14.439483-24.535088-14.355253-38.577485C1.046863 484.962068 1.070928 275.565499 1.058895 66.168931c0-4.84926-0.108296-9.734618 0.57758-14.559812C3.44141 38.228531 10.107638 25.593984 20.070881 16.485076m456.889307 158.689918c-2.659271 0.360987-5.258378 1.022797-7.725123 2.033561-18.470505 7.508531-35.846016 17.640235-51.560987 29.877696-7.051281 5.378707-11.659882 13.873937-12.117133 22.742186-0.625711 7.785288 3.188719 14.992996 3.453443 22.71812 2.791633 26.676945-12.827074 53.967568-37.157603 65.194266-7.123478 3.838496-15.702938 4.223549-22.272903 9.181104-7.25584 4.84926-12.225429 12.899271-13.464817 21.526863-2.69537 19.782092-2.719436 39.937203 0.024065 59.719295 1.383784 9.939177 7.869518 18.915723 16.737768 23.54839 4.404042 2.430646 9.469894 3.15262 14.114594 5.005687 13.585147 5.174148 25.341293 14.980964 32.813725 27.459084 8.771986 14.391351 11.659882 32.200047 7.83342 48.612926-0.721974 3.104489-1.756804 6.160846-2.021528 9.373631-1.022797 10.179835 3.573772 20.636428 11.599718 26.941668 15.943596 12.526251 33.643995 22.814383 52.439389 30.419178 11.491422 4.596569 25.401457 1.57631 34.125312-7.123479 10.588954-10.889777 24.944207-18.097485 40.081598-19.673795 17.351445-2.033561 35.412832 3.272949 48.901715 14.379318 3.633937 2.827732 6.533866 6.521833 10.432527 9.03671 8.591492 5.872056 20.131046 7.207709 29.793466 3.260917 16.593373-6.71436 32.308343-15.570576 46.735793-26.171563 4.055088-3.044324 8.350834-5.992385 11.250764-10.24 5.631398-7.54463 7.364136-17.736498 4.620635-26.73711-4.897391-17.026557-2.563008-35.990411 6.473701-51.248131 8.651657-15.017062 23.512291-26.219694 40.286158-30.527474 11.972738-2.972127 21.791586-13.30839 23.752949-25.545852 2.863831-19.914454 2.863831-40.238026 0.168461-60.176545-1.179224-9.157039-6.642162-17.604136-14.463549-22.501527-5.174148-3.670035-11.635817-4.379976-17.375511-6.786557-12.875206-5.113984-24.017673-14.42745-31.321645-26.195629-8.66369-13.68141-11.936639-30.63577-8.988578-46.567333 0.794172-4.885358 2.7796-9.566157 2.743502-14.583877 0.240658-9.433796-4.247615-18.783361-11.659883-24.595253A215.39858 215.39858 0 0 0 632.93067 177.136357c-9.169072-3.718167-20.058848-2.731469-28.457815 2.466745-5.462938 3.224818-9.265335 8.507262-14.523713 12.02087-15.763102 11.635817-36.904912 15.594642-55.784536 10.348296-11.467356-2.911962-21.935981-9.241269-30.214618-17.652268-6.967051-6.979083-17.207051-10.492691-26.9898-9.145006zM538.460353 296.984066c15.606675-2.418613 31.92329-0.300823 46.338707 6.22101 18.037321 8.062045 32.970153 22.850482 41.176592 40.839671 7.4604 16.112056 9.385664 34.678825 5.535135 52.006205-4.067121 18.759295-15.077227 35.858049-30.322914 47.505899-14.198825 10.974007-32.079718 17.062656-50.020775 16.990458-17.977156 0.072197-35.870082-6.05255-50.068908-17.050623-15.582609-11.924606-26.713043-29.576874-30.539506-48.841551-4.139318-20.131046-0.385053-41.766204 10.444559-59.250012 12.345758-20.359671 33.896686-34.835253 57.45711-38.421057z" /></svg>